<svg id="3aa681a5-6c7d-4a97-a286-41f8fc33bf1f" data-name="Layer 1" xmlns="http://www.w3.org/2000/svg" viewBox="0 0 1024 1024">
  <title>liveme.tools.icon</title>
  <g>
    <circle cx="512" cy="512" r="512" fill="#372970"/>
    <g>
      <path d="M876.87,764.4c-3.85-1.19-7.74-2.27-11.55-3.58a3.16,3.16,0,0,1-1.72-2.07q-1.07-6-1.72-12a3.13,3.13,0,0,1,1.09-2.45c3.3-2.31,6.75-4.42,10.11-6.64,4.5-3,5.74-7,3.64-12q-5.19-12.28-10.46-24.52c-2.09-4.85-6.05-6.8-11.2-5.58-3.86.91-7.72,1.78-11.56,2.77a2.26,2.26,0,0,1-2.8-1c-2.35-3.17-4.83-6.25-7.36-9.29a2.64,2.64,0,0,1-.29-3.44c1.62-2.88,3-5.91,4.64-8.78,2.3-4,2.56-7.9,0-11.84l-26-19.54c-4.94-1.09-8.69.8-11.93,4.44a59,59,0,0,1-6.53,6.12,3.51,3.51,0,0,1-2.9.53c-3.79-1.37-7.45-3.08-11.24-4.45a2.25,2.25,0,0,1-1.72-2.44q-0.2-5.82-.58-11.63c-0.35-5.37-3.23-8.39-8.62-9.06q-13.11-1.62-26.22-3.17c-5.5-.65-9,1.62-10.6,6.94-1.12,3.62-2.26,7.24-3.26,10.9a2.43,2.43,0,0,1-2.43,2.1c-3.94.43-7.87,1-11.76,1.68a2.39,2.39,0,0,1-2.89-1.35c-2-3.23-4.07-6.4-6.14-9.57-2.89-4.44-7.11-5.78-12-3.73q-12.28,5.18-24.53,10.44c-5,2.16-6.89,6-5.64,11.37,0.88,3.78,1.85,7.54,2.62,11.35a2.87,2.87,0,0,1-.8,2.32c-3.21,2.69-6.59,5.19-9.81,7.86a2,2,0,0,1-2.73.22c-2.83-1.55-5.87-2.73-8.61-4.41-4-2.45-7.83-2.65-11.8-.19l-19.54,26c-1.73,5.38,1,9.08,4.6,12.53a75.83,75.83,0,0,1,5.6,6,2.92,2.92,0,0,1,.53,2.42q-2.26,6-4.88,11.85a2.9,2.9,0,0,1-2.08,1.32c-3.79.31-7.59,0.43-11.38,0.61-5.35.26-8.62,3.15-9.28,8.38q-1.7,13.46-3.27,26.93a8.86,8.86,0,0,0,6.52,10q5.66,1.76,11.37,3.36a2.24,2.24,0,0,1,2,2.25c0.42,4,1,8,1.7,12a2.29,2.29,0,0,1-1.2,2.76c-3.23,2-6.4,4.06-9.57,6.14-4.54,3-5.81,7.15-3.69,12.17q5.15,12.16,10.36,24.28c2.13,4.95,5.9,6.89,11.11,5.73q5.56-1.23,11.09-2.63a2.45,2.45,0,0,1,3,1.08c2.31,3.2,4.77,6.3,7.34,9.3a2.36,2.36,0,0,1,.27,3.2c-1.63,3-2.91,6.14-4.67,9a10.64,10.64,0,0,0-.16,11.83l26,19.54c5.58,1.56,9.33-1.43,12.88-5.09,1.91-2,4-3.72,6-5.67a2,2,0,0,1,2.72-.5c3.69,1.62,7.43,3.12,11.21,4.53a2.34,2.34,0,0,1,1.78,2.46c0.13,4,.36,7.92.57,11.87,0.27,5,3.25,8.33,8.19,9q13.46,1.7,26.94,3.28c5.08,0.59,8.77-1.88,10.29-6.82,1.17-3.78,2.29-7.57,3.36-11.37a2.25,2.25,0,0,1,2.23-2q6-.64,12-1.71a2.26,2.26,0,0,1,2.7,1.27c2.08,3.36,4.24,6.67,6.4,10,2.82,4.31,7,5.63,11.79,3.62q12.27-5.19,24.51-10.47c5.19-2.23,7-6,5.69-11.55-0.89-3.7-1.7-7.41-2.66-11.09a2.32,2.32,0,0,1,1-2.86c3.17-2.36,6.33-4.74,9.3-7.34a2.37,2.37,0,0,1,3.17-.32c3,1.59,6.09,3,9,4.72,4.17,2.45,8.27,3,12.51.29l19.25-25.63c1.2-4.48,0-8.19-3.37-11.38-2.52-2.38-4.79-5-7.21-7.51a2.72,2.72,0,0,1-.7-3.58,107.49,107.49,0,0,0,4.23-10.55,2.55,2.55,0,0,1,2.76-2c3.88-.1,7.76-0.33,11.63-0.58,5.41-.34,8.44-3.17,9.11-8.56q1.64-13.23,3.19-26.46C884.37,769.52,882,766,876.87,764.4Zm-99.26,36.89c-17.21,22.3-48.77,26.21-71.32,8.84-21.35-16.45-25.37-48.29-8.8-69.88A50.36,50.36,0,1,1,777.61,801.29Z" transform="translate(-0.43)" fill="#fff"/>
      <path d="M552,565.55q5.56-1.23,11.09-2.63a2.45,2.45,0,0,1,3,1.08c2.31,3.2,4.77,6.3,7.34,9.3a2.36,2.36,0,0,1,.27,3.2c-1.63,3-2.91,6.14-4.67,9a10.64,10.64,0,0,0-.16,11.83l26,19.54c5.58,1.56,9.33-1.43,12.88-5.09,1.91-2,4-3.72,6-5.67a2,2,0,0,1,2.72-.5c3.69,1.62,7.43,3.12,11.21,4.53a2.34,2.34,0,0,1,1.78,2.46c0.13,4,.36,7.92.57,11.87,0.27,5,3.25,8.33,8.19,9q13.46,1.7,26.94,3.28c5.08,0.59,8.77-1.88,10.29-6.82q1.75-5.66,3.36-11.37a2.25,2.25,0,0,1,2.23-2q6-.64,12-1.71a2.26,2.26,0,0,1,2.7,1.27c2.08,3.36,4.24,6.67,6.4,10,2.82,4.31,7,5.63,11.79,3.62q12.27-5.19,24.51-10.47c5.19-2.23,7-6,5.69-11.55-0.89-3.7-1.7-7.41-2.66-11.09a2.32,2.32,0,0,1,1-2.86c3.17-2.36,6.33-4.74,9.3-7.34a2.37,2.37,0,0,1,3.17-.32c3,1.59,6.09,3,9,4.72,4.17,2.45,8.27,3,12.51.29l19.25-25.63c1.2-4.48,0-8.19-3.37-11.38-2.52-2.38-4.79-5-7.21-7.51a2.72,2.72,0,0,1-.7-3.58,107.52,107.52,0,0,0,4.23-10.55,2.55,2.55,0,0,1,2.76-2c3.88-.1,7.76-0.33,11.63-0.58,5.41-.34,8.44-3.17,9.11-8.56q1.64-13.23,3.19-26.46c0.62-5.3-1.73-8.83-6.88-10.42-3.85-1.19-7.74-2.27-11.55-3.58a3.16,3.16,0,0,1-1.72-2.07q-1.07-6-1.72-12a3.13,3.13,0,0,1,1.09-2.45c3.3-2.31,6.75-4.42,10.11-6.64,4.5-3,5.74-7,3.64-12q-5.19-12.28-10.46-24.52c-2.09-4.85-6.05-6.8-11.2-5.58-3.86.91-7.72,1.78-11.56,2.77a2.26,2.26,0,0,1-2.8-1c-2.35-3.17-4.83-6.25-7.36-9.29a2.64,2.64,0,0,1-.29-3.44c1.62-2.88,3-5.91,4.64-8.78,2.3-4,2.56-7.9,0-11.84l-26-19.54c-4.94-1.09-8.69.81-11.93,4.44a59,59,0,0,1-6.53,6.12,3.51,3.51,0,0,1-2.9.53c-3.79-1.37-7.45-3.08-11.24-4.45a2.25,2.25,0,0,1-1.72-2.44q-0.2-5.82-.58-11.63c0-.13,0-0.25,0-0.38L532.12,539.19q4.38,10.32,8.8,20.63C543.05,564.77,546.82,566.71,552,565.55Zm77.09-105.31a50.36,50.36,0,1,1,80.12,61c-17.21,22.3-48.77,26.21-71.32,8.84C616.57,513.68,612.56,481.84,629.12,460.25Z" transform="translate(-0.43)" fill="#fff"/>
      <path d="M344.42,765.25q5.56-1.23,11.09-2.63a2.45,2.45,0,0,1,3,1.08c2.31,3.2,4.77,6.3,7.34,9.3a2.36,2.36,0,0,1,.27,3.2c-1.63,3-2.91,6.14-4.67,9a10.64,10.64,0,0,0-.16,11.83l26,19.54c5.58,1.56,9.33-1.43,12.88-5.09,1.91-2,4-3.72,6-5.67a2,2,0,0,1,2.72-.5c3.69,1.62,7.43,3.12,11.21,4.53a2.34,2.34,0,0,1,1.78,2.46c0.13,4,.36,7.92.57,11.87,0.27,5,3.25,8.33,8.19,9q13.46,1.7,26.94,3.28c5.08,0.59,8.77-1.88,10.29-6.82q1.75-5.66,3.36-11.37a2.25,2.25,0,0,1,2.23-2q6-.64,12-1.71a2.26,2.26,0,0,1,2.7,1.27c2.08,3.36,4.24,6.67,6.4,10,2.82,4.31,7,5.63,11.79,3.62q12.27-5.19,24.51-10.47c5.19-2.23,7-6,5.69-11.55-0.89-3.7-1.7-7.41-2.66-11.09a2.32,2.32,0,0,1,1-2.86c3.17-2.36,6.33-4.74,9.3-7.34a2.37,2.37,0,0,1,3.17-.32c3,1.59,6.09,3,9,4.72,4.17,2.45,8.27,3,12.51.29l19.25-25.63c1.2-4.48,0-8.19-3.37-11.38-2.52-2.38-4.79-5-7.21-7.51a2.72,2.72,0,0,1-.7-3.58,107.51,107.51,0,0,0,4.23-10.55,2.55,2.55,0,0,1,2.76-2c3.88-.1,7.76-0.33,11.63-0.58,5.41-.34,8.44-3.17,9.11-8.56q1.64-13.23,3.19-26.46c0.62-5.3-1.73-8.83-6.88-10.42-3.85-1.19-7.74-2.27-11.55-3.58a3.16,3.16,0,0,1-1.72-2.07q-1.07-6-1.72-12A3.13,3.13,0,0,1,587,664c3.3-2.31,6.75-4.42,10.11-6.64,4.5-3,5.74-7,3.64-12q-5.19-12.28-10.46-24.52c-2.09-4.85-6.05-6.8-11.2-5.58-3.86.91-7.72,1.78-11.56,2.77a2.26,2.26,0,0,1-2.8-1c-2.35-3.17-4.83-6.25-7.36-9.29a2.64,2.64,0,0,1-.29-3.44c1.62-2.88,3-5.91,4.64-8.78,2.3-4,2.56-7.9,0-11.84l-26-19.54c-4.94-1.09-8.69.8-11.93,4.44a59,59,0,0,1-6.53,6.12,3.51,3.51,0,0,1-2.9.53c-3.79-1.37-7.45-3.08-11.24-4.45a3.27,3.27,0,0,1-1-.52l-173,179.25c1.42,3.32,2.83,6.65,4.26,10C335.44,764.46,339.21,766.41,344.42,765.25Zm77.09-105.31a50.36,50.36,0,1,1,80.12,61c-17.21,22.3-48.77,26.21-71.32,8.84C409,713.38,405,681.54,421.51,659.94Z" transform="translate(-0.43)" fill="#fff"/>
    </g>
    <path d="M228,854.21c18.42-83,34.72-162.77,54.39-241.65,6.41-25.7.08-37.63-22.93-47.43a759.34,759.34,0,0,1-106.6-55.38c218.83-92.5,437.44-180.31,666.41-268C798.72,292.73,257.44,848.39,228,854.21Z" transform="translate(-0.43)" fill="#70cadd"/>
    <path d="M590.72,287.5L435,354.41,542.39,159.95Z" transform="translate(-0.43)" fill="#ba64a8"/>
    <path d="M1024,0" transform="translate(-0.43)" fill="#ba64a8"/>
  </g>
</svg>
